<?xml version="1.0" encoding="UTF-8"?>
<!-- Generator: Adobe Illustrator 27.6.1, SVG Export Plug-In . SVG Version: 6.00 Build 0)  -->
<svg xmlns="http://www.w3.org/2000/svg" xmlns:xlink="http://www.w3.org/1999/xlink" version="1.1" id="Layer_1" x="0px" y="0px" viewBox="0 0 84 84" style="enable-background:new 0 0 84 84;" xml:space="preserve">
<style type="text/css">
	.st0{fill:none;}
	.st1{fill:#003865;}
	.st2{fill:#00B5E2;}
</style>
<rect y="0" class="st0" width="84" height="84"></rect>
<rect x="10.6" y="9.7" class="st0" width="62.7" height="61.4"></rect>
<path id="Path_15821" class="st1" d="M71.8,47.1c-0.9-0.8-2-1.2-3.2-1.2c-1.3,0-2.5,0.5-3.4,1.4l-6,6h-8.8c0.6-0.8,0.9-1.8,0.9-2.8  c-0.1-2.5-2.2-4.4-4.7-4.4H36.5c-0.9,0-1.7,0.2-2.5,0.5l-7.5,3.3h-3.4v-0.8c0-0.5-0.4-0.9-0.9-0.9c0,0,0,0,0,0h-3.8  c-0.5,0-0.9,0.4-0.9,0.9c0,0,0,0,0,0c0,0.5,0.4,0.9,0.9,0.9c0,0,0,0,0,0h2.9v19.4h-8.8V50h1.6c0.5,0,0.9-0.4,0.9-0.9  c0-0.5-0.4-0.9-0.9-0.9c0,0,0,0,0,0h-2.6c-0.5,0-0.9,0.4-0.9,0.9c0,0,0,0,0,0v21.2c0,0.5,0.4,0.9,0.9,0.9h10.7  c0.5,0,0.9-0.4,0.9-0.9V70h9.8c1.2,0,2.3-0.1,3.4-0.4l15.2-3.7c0.5-0.1,0.8-0.6,0.7-1.1c0,0,0,0,0,0c-0.1-0.5-0.6-0.8-1.1-0.7  l-15.2,3.7c-1,0.2-2,0.4-3,0.4h-9.8V51.7h3.6c0.1,0,0.3,0,0.4-0.1l7.6-3.3c0.6-0.2,1.2-0.4,1.8-0.4h10.2c1.5,0,2.7,1.1,2.8,2.6  c0,0.7-0.3,1.4-0.8,2c-0.6,0.4-1.3,0.7-2,0.8h-7c-0.5,0-0.9,0.4-0.9,0.9c0,0,0,0,0,0c0,0.5,0.4,0.9,0.9,0.9c0,0,0,0,0,0h19.9  c0.2,0,0.5-0.1,0.7-0.3l6.3-6.3c0.5-0.5,1.3-0.8,2-0.8c0.7,0,1.4,0.3,2,0.8c1.1,1,1.2,2.8,0.2,3.9c0,0,0,0,0,0.1l-6.1,6.4  c-1.7,1.7-3.8,3-6.1,3.5l-3.2,0.8c-0.5,0.1-0.8,0.6-0.7,1.1c0,0,0,0,0,0c0.1,0.4,0.5,0.7,0.9,0.7c0.1,0,0.1,0,0.2,0l3.2-0.8  c2.7-0.6,5.1-2,7-4l6.1-6.4C73.8,51.8,73.7,48.9,71.8,47.1C71.9,47.2,71.8,47.2,71.8,47.1"></path>
<path id="Path_15822" class="st1" d="M48.1,44c9.6,0.1,17.4-7.6,17.5-17.1c0-4-1.4-7.8-4-10.9c-0.3-0.4-0.9-0.4-1.3-0.1  c-0.4,0.3-0.4,0.9-0.1,1.2c0,0,0,0,0,0c2.3,2.7,3.6,6.2,3.6,9.7c-0.1,8.6-7.1,15.4-15.7,15.3c-8.6,0.1-15.6-6.8-15.7-15.3  c0.1-8.6,7.1-15.4,15.7-15.3c3.3,0,6.5,1,9.2,2.9c0.4,0.3,1,0.2,1.3-0.2c0.3-0.4,0.2-1-0.2-1.2c0,0,0,0,0,0c-3-2.1-6.6-3.3-10.2-3.2  c-9.6-0.1-17.4,7.6-17.5,17.1C30.7,36.4,38.6,44.1,48.1,44"></path>
<path id="Path_15823" class="st2" d="M55.2,23.3c0.2,0.4,0.4,0.8,0.5,1.2c0.1,0.3,0.4,0.5,0.7,0.6l3.3,0.8v2.1l-3.3,0.8  c-0.3,0.1-0.6,0.3-0.7,0.6c-0.1,0.4-0.3,0.8-0.5,1.2c-0.1,0.3-0.1,0.6,0,0.9l1.8,2.8l-1.5,1.5l-2.9-1.7c-0.3-0.2-0.6-0.2-0.9,0  c-0.4,0.2-0.8,0.4-1.2,0.5c-0.3,0.1-0.5,0.3-0.6,0.6l-0.8,3.2h-2.1l-0.8-3.2c-0.1-0.3-0.3-0.6-0.6-0.6c-0.4-0.1-0.8-0.3-1.2-0.5  c-0.3-0.1-0.6-0.1-0.9,0l-2.9,1.7l-1.5-1.5l1.8-2.8c0.2-0.3,0.2-0.6,0-0.9c-0.2-0.4-0.4-0.8-0.5-1.2c-0.1-0.3-0.4-0.5-0.7-0.6  l-3.3-0.8v-2.1l3.3-0.8c0.3-0.1,0.6-0.3,0.7-0.6c0.1-0.4,0.3-0.8,0.5-1.2c0.1-0.3,0.1-0.6,0-0.9l-1.8-2.8l1.5-1.5l2.9,1.7  c0.3,0.2,0.6,0.2,0.9,0c0.4-0.2,0.8-0.4,1.2-0.5c0.3-0.1,0.5-0.3,0.6-0.6l0.8-3.2h2.1l0.8,3.2c0.1,0.3,0.3,0.6,0.6,0.6  c0.4,0.1,0.8,0.3,1.2,0.5c0.3,0.1,0.6,0.1,0.9,0l2.9-1.7l1.5,1.5l-1.8,2.8C55.1,22.7,55.1,23,55.2,23.3 M55.2,16.2l-3.1,1.8  c-0.2-0.1-0.3-0.1-0.5-0.2l-0.8-3.4c-0.1-0.4-0.5-0.7-0.9-0.7h-3.6c-0.4,0-0.8,0.3-0.9,0.7l-0.8,3.4c-0.2,0.1-0.3,0.1-0.5,0.2  l-3.1-1.8c-0.4-0.2-0.8-0.2-1.1,0.1l-2.5,2.5c-0.3,0.3-0.4,0.8-0.1,1.1l1.9,3c-0.1,0.2-0.1,0.3-0.2,0.5l-3.5,0.8  c-0.4,0.1-0.7,0.5-0.7,0.9v3.5c0,0.4,0.3,0.8,0.7,0.9l3.5,0.8c0.1,0.2,0.1,0.3,0.2,0.5l-1.9,3c-0.2,0.4-0.2,0.8,0.1,1.1l2.5,2.5  c0.3,0.3,0.8,0.3,1.1,0.1l3.1-1.8c0.2,0.1,0.3,0.1,0.5,0.2l0.8,3.4c0.1,0.4,0.5,0.7,0.9,0.7h3.6c0.4,0,0.8-0.3,0.9-0.7l0.8-3.4  c0.2-0.1,0.3-0.1,0.5-0.2l3.1,1.8c0.4,0.2,0.8,0.2,1.1-0.1l2.5-2.5c0.3-0.3,0.4-0.8,0.1-1.1l-1.9-3c0.1-0.2,0.1-0.3,0.2-0.5l3.5-0.8  c0.4-0.1,0.7-0.5,0.7-0.9v-3.5c0-0.4-0.3-0.8-0.7-0.9l-3.5-0.8c-0.1-0.2-0.1-0.3-0.2-0.5l1.9-3c0.2-0.4,0.2-0.8-0.1-1.1l-2.5-2.5  C56,16.1,55.5,16,55.2,16.2"></path>
<path id="Path_15824" class="st2" d="M48.1,29.4c-1.4,0-2.6-1.1-2.6-2.6c0-1.4,1.2-2.6,2.6-2.6c1.4,0,2.6,1.1,2.6,2.6  C50.7,28.3,49.6,29.4,48.1,29.4 M48.1,22.5c-2.4,0-4.4,1.9-4.5,4.4c0,2.4,2,4.4,4.5,4.4c2.4,0,4.4-1.9,4.5-4.4  C52.6,24.4,50.6,22.4,48.1,22.5"></path>
</svg>
