<?xml version="1.0" encoding="UTF-8"?>
<!-- Generator: Adobe Illustrator 27.6.1, SVG Export Plug-In . SVG Version: 6.00 Build 0)  -->
<svg xmlns="http://www.w3.org/2000/svg" xmlns:xlink="http://www.w3.org/1999/xlink" version="1.1" id="Layer_1" x="0px" y="0px" viewBox="0 0 60 60" style="enable-background:new 0 0 60 60;" xml:space="preserve">
<style type="text/css">
	.st0{fill:none;}
	.st1{fill:#003865;}
	.st2{fill:#00B5E2;}
	.st3{fill:#707070;}
</style>
<rect y="0" class="st0" width="60" height="60"></rect>
<g id="Leadership">
	<g id="Ellipse_713" transform="translate(8 14)">
		<path class="st1" d="M4,9.5c-2.5,0-4.5-2.2-4.5-5s2-5,4.5-5s4.5,2.2,4.5,5S6.5,9.5,4,9.5z M4,0.5c-1.9,0-3.5,1.8-3.5,4    s1.6,4,3.5,4s3.5-1.8,3.5-4S5.9,0.5,4,0.5z"></path>
	</g>
	<g id="Ellipse_714" transform="translate(26.4 12)">
		<path class="st2" d="M4,9.5c-2.5,0-4.5-2.2-4.5-5s2-5,4.5-5c2.5,0,4.5,2.2,4.5,5S6.5,9.5,4,9.5z M4,0.5c-1.9,0-3.5,1.8-3.5,4    s1.6,4,3.5,4c1.9,0,3.5-1.8,3.5-4S5.9,0.5,4,0.5z"></path>
	</g>
	<g id="Ellipse_715" transform="translate(44 14)">
		<ellipse class="st0" cx="4" cy="4.5" rx="4" ry="4.5"></ellipse>
		<path class="st1" d="M4,9C1.8,9,0,7,0,4.5S1.8,0,4,0s4,2,4,4.5S6.2,9,4,9z M4,1C2.3,1,1,2.6,1,4.5S2.3,8,4,8s3-1.6,3-3.5    S5.7,1,4,1z"></path>
	</g>
	<path class="st3" d="M4.9,45c-0.4,0-0.7-0.2-1-0.4c-0.8-0.8-0.7-2.6-0.7-2.8l0-12.9l0-0.1c1.6-4.1,6-4.5,6.2-4.5l3.6,0h0   c1.8,0,4.9-3.3,5.9-4.6l0.8,0.6c-0.4,0.5-4.1,5-6.7,5h0H9.4c-0.1,0-3.8,0.4-5.2,3.8v12.8c0,0.6,0.1,1.7,0.4,2.1   C4.7,44,4.8,44,4.9,44l0,0h2.4l0,1H4.9C4.9,45,4.9,45,4.9,45z"></path>
	<g id="Group_16523">
		<path class="st1" d="M4.9,45c-0.4,0-0.7-0.2-1-0.4c-0.8-0.8-0.7-2.6-0.7-2.8l0-12.9l0-0.1c1.6-4.1,6-4.5,6.2-4.5l3.6,0h0    c1.8,0,4.9-3.3,5.9-4.6l0.8,0.6c-0.4,0.5-4.1,5-6.7,5h0H9.4c-0.1,0-3.8,0.4-5.2,3.8v12.8c0,0.6,0.1,1.7,0.4,2.1    C4.7,44,4.8,44,4.9,44l0,0h3l0,1H4.9C4.9,45,4.9,45,4.9,45z"></path>
		<path class="st1" d="M13,55.8H7.4l0-0.5c0-0.2,0-18.6,0-20.5c0-0.4-0.1-0.6-0.3-0.8c-0.4-0.3-1.2-0.3-1.5-0.2l-0.2-1    c0.1,0,1.5-0.3,2.3,0.4c0.3,0.2,0.7,0.7,0.7,1.5c0,1.8,0,17,0,20H12V42.8h1V55.8z"></path>
		<polygon class="st1" points="17.6,55.3 16.6,55.3 16.6,29.8 21.5,24.8 22.2,25.5 17.6,30.2   "></polygon>
	</g>
	<g id="Group_16524" transform="translate(38.703 20)">
		<path class="st1" d="M16.7,25C16.7,25,16.7,25,16.7,25H14v-1h2.7h0c0.1,0,0.2,0,0.3-0.1c0.4-0.4,0.5-1.6,0.4-2.1l0-12.8    c-1.4-3.4-5.2-3.8-5.3-3.8l-3.6,0h0c-2.6,0-6.3-4.4-6.7-5l0.8-0.6C3.7,1,6.8,4.3,8.6,4.3h0h3.6c0.2,0,4.6,0.4,6.2,4.5l0,0.2v12.9    c0,0.2,0.1,2-0.7,2.8C17.5,24.9,17.1,25,16.7,25z"></path>
		<path class="st1" d="M14.2,35.8H8.7V22.8h1v12.1h3.5c0-3,0-18.3,0-20c0-0.8,0.4-1.3,0.7-1.5c0.9-0.7,2.2-0.5,2.3-0.4l-0.2,1    c-0.3-0.1-1.1-0.1-1.5,0.2c-0.2,0.2-0.3,0.4-0.3,0.8c0,1.9,0,20.3,0,20.5L14.2,35.8z"></path>
		<polygon class="st1" points="5.1,35.3 4.1,35.3 4.1,10 -1,5.6 -0.3,4.9 5.1,9.6   "></polygon>
	</g>
	<path class="st2" d="M30.2,55.6h-6l0-0.5c0.1-10,0.1-25,0-26.6c-2.1-2.5-4-5.3-5.5-8.3l-0.1-0.1v-9.3l0.1-0.1   c0-0.1,1.1-1.7,2.6-1.7c0.9,0,1.7,0.7,2.3,1.9l-0.9,0.5c-0.3-0.6-0.8-1.4-1.5-1.4c-0.7-0.1-1.3,0.7-1.6,1.1v8.8   c1.4,2.9,3.2,5.6,5.4,8.1c0.2,0.2,0.3,0.4,0.1,26.6h4V42.8h1V55.6z"></path>
	<path class="st2" d="M35.8,55.6l-1,0c0-8.5,0-24.3,0-26.6l-0.3-0.1l0.4-0.5c2-2.6,3.8-5.4,5.3-8.3v-9c-0.5-0.6-0.9-0.8-1.3-0.8   c-0.5,0-1,0.5-1.2,0.8v6.2c0,0.1-0.5,6.1-7.3,6.2c-3.8,0.3-7.2-2.3-7.8-6.1l0-6.4h1v6.3c0.5,3.2,3.5,5.5,6.8,5.2   c6-0.1,6.4-5,6.4-5.2l0-6.4l0.1-0.1c0-0.1,0.8-1.3,2-1.4c0.8,0,1.6,0.4,2.3,1.3l0.1,0.1v9.6l-0.1,0.1c-1.6,2.9-3.4,5.8-5.4,8.5   C35.9,30.5,35.9,36,35.8,55.6z"></path>
</g>
</svg>
