<?xml version="1.0" encoding="UTF-8"?>
<!-- Generator: Adobe Illustrator 26.0.2, SVG Export Plug-In . SVG Version: 6.00 Build 0)  -->
<svg xmlns="http://www.w3.org/2000/svg" xmlns:xlink="http://www.w3.org/1999/xlink" version="1.1" id="Layer_1" x="0px" y="0px" viewBox="0 0 512 512" style="enable-background:new 0 0 512 512;" xml:space="preserve">
<style type="text/css">
	.st0{fill:#00B5E2;}
	.st1{fill:#003865;}
</style>
<path class="st0" d="M264.5,255.1l-23-23c-1.6-1.6-4.1-1.6-5.7,0.2l-57.2,57.2l-59.2-59.2c-1.6-1.6-4.1-1.6-5.6,0l-31.5,31.5  c-1.6,1.6-1.6,4.1,0,5.6l59.2,59.2l-36.4,36.4c-0.2,0.2-0.5,0.6-0.7,1l-21.2,41.8c-1.7,3.3,1.7,6.9,5.1,5.5l43.9-18.8  c0.5-0.2,1.1-0.6,1.5-1l36.4-36.4l46.7,46.7c1.6,1.6,4.1,1.6,5.6,0l31.5-31.5c1.6-1.6,1.6-4.1,0-5.6L207.3,318l57.2-57.2  C266,259.2,266,256.7,264.5,255.1z M138.8,312.6l-7.8-7.8l11.2-11.3c3.8-3.7-1.9-9.4-5.6-5.6L125.3,299l-7.8-7.8l11.1-11.1  c3.8-3.7-1.9-9.4-5.6-5.6l-11.1,11.1l-7.8-7.8l10.9-11.3c3.8-3.7-1.9-9.4-5.6-5.6L98.2,272l-7.5-7.6l25.8-25.7l56.4,56.4l-25.7,25.8  l-2.8-2.5l11.2-11.2c3.8-3.7-1.9-9.4-5.6-5.6L138.8,312.6z M95.2,399.7l14.6-28.8c7.6,3.2,13.2,8.2,16.1,15.7L95.2,399.7z   M245.4,367.5l-25.8,25.8l-7.5-7.5l11.2-11.2c3.8-3.7-1.9-9.4-5.6-5.6l-11.1,11.1l-7.8-7.8l11.1-11.1c3.8-3.7-1.9-9.4-5.6-5.6  L193,366.7l-7.8-7.8l11.1-11.2c3.8-3.7-1.9-9.4-5.6-5.6l-11.1,11.1l-3.7-3.7l25.7-25.7L245.4,367.5z M132.4,381.5  c-3.6-7.8-9.6-13.3-17.5-17.1l123.8-123.7l17.2,17.2L132.4,381.5z"></path>
<g>
	<path class="st1" d="M338.3,169.7c0-24.5-19.9-44.3-44.3-44.3c-23.1,0-42,17.8-44.1,40.2h8.1c2.1-18,17.3-32.2,36.1-32.2   c20,0,36.3,16.3,36.3,36.3c0,21.9-19,38.1-39.7,36.2v8.1C315.7,215.9,338.3,195.9,338.3,169.7z"></path>
	<path class="st1" d="M218.8,161.6h11.8c2,0,3.8-1.6,4-3.5c0.8-4,2-7.8,3.5-11.5c1.6-3.8,3.6-7.4,5.9-10.9c1.1-1.6,0.8-3.8-0.5-5.1   l-8.3-8.3l11.4-11.4l8.3,8.3c1.5,1.5,3.8,1.6,5.3,0.3c3.3-2.2,6.9-4.2,10.6-5.7c3.8-1.6,7.7-2.7,11.8-3.5c2-0.3,3.3-2,3.3-3.9V94.6   H302v11.8c0,2,1.6,3.7,3.5,3.9c4,0.8,7.8,2,11.5,3.5c3.8,1.6,7.4,3.6,10.9,5.9c1.6,1.1,3.8,0.8,5.1-0.5l8.3-8.3l11.4,11.4l-8.3,8.3   c-1.5,1.5-1.6,3.8-0.3,5.3c2.2,3.3,4.2,6.9,5.7,10.6c1.6,3.8,2.7,7.7,3.5,11.8c0.3,2,2,3.3,3.9,3.3H369v16.2h-11.8   c-2,0-3.7,1.6-3.9,3.5c-0.8,4-2,7.8-3.5,11.5c-1.6,3.8-3.6,7.4-5.9,10.9c-1.1,1.6-0.8,3.8,0.5,5.1l8.3,8.3l-11.4,11.4l-8.3-8.3   c-1.5-1.5-3.8-1.6-5.3-0.3c-3.3,2.2-6.9,4.2-10.6,5.7c-3.8,1.6-7.7,2.7-11.8,3.5c-2,0.4-3.3,2.2-3.3,4.2v11.5h-11.4v8.1h15.5   c2.2,0,4-1.8,4-4v-12.5c6.9-1.6,13.6-4.4,19.6-8.1l8.9,8.8c1.6,1.6,4.1,1.6,5.6,0l17.1-17.1c1.6-1.6,1.6-4.1,0-5.6l-8.8-8.9   c3.7-6,6.5-12.7,8.1-19.6H373c2.2,0,4-1.8,4-4v-24.2c0-2.2-1.8-4-4-4h-12.5c-1.6-6.9-4.4-13.6-8.1-19.6l8.8-9   c1.6-1.6,1.6-4.1,0-5.6l-17.1-17.1c-1.6-1.6-4.1-1.6-5.6,0l-8.7,8.8c-6-3.7-12.7-6.4-19.6-8.1V90.6c0-2.2-1.8-4-4-4H282   c-2.2,0-4,1.8-4,4v12.6c-6.9,1.6-13.6,4.4-19.6,8.1l-8.9-8.8c-1.6-1.6-4.1-1.6-5.6,0l-17.2,17c-1.6,1.6-1.6,4.1,0,5.6l8.9,8.9   c-3.7,6-6.4,12.7-8.1,19.6h-12.5c-2.2,0-4,1.8-4,4v8h7.9V161.6z"></path>
	<path class="st1" d="M284.4,378.4V252.9l-0.1-23V213c0-0.3,0.1-8.3,0.1-8.3c0,0,0,0,0,0v-28.7c0-2.2-1.8-4-4-4h-22.6h-8h-30.9   l-0.1,0l-7.9,0h-55.3h-8h-43h0c-0.1,0-0.2,0-0.2,0.2h-0.1h-0.1h-0.1h-0.2h-0.1l-1.1,0.4l-0.4,0.2L102,173l-0.3,0.2l-46.7,46.7   c-0.7,0.7-1.2,1.7-1.2,2.9v233.4c0,2.2,1.8,4,4,4h222.6c2.2,0,4-1.8,4-4V419L284.4,378.4z M100.6,185.7v33H67.5L100.6,185.7z    M276.3,452.3H61.8V226.8h42.7c2.2,0,4-1.8,4-4.1v-42.7h167.7V452.3z"></path>
	<path class="st1" d="M455.7,251.1c-3.8-6-8.1-13.1-12.5-20c-8.7-13.8-17.4-27.6-22.3-37.7c0.1-2.6,0.1-5,0.1-7.1   c0-79.1-40.2-134.4-122.9-134.4c-54,0-92.2,14.2-116.6,37.3c-21.5,20.5-31.9,47.4-33.7,76.5h8c1.8-26.9,11.4-51.8,31.4-70.6   c23-21.8,59.1-35.1,111-35.1c78.1,0,114.8,51.6,114.8,126.4c0,2.9,0,5.5-0.1,7.8c0,0.7,0.2,1.2,0.4,1.8   c7.3,15.5,24.8,41.5,35.5,59.4c3.7,6-0.9,13.8-7.9,14.1l-33,1.6c-2.2,0.2-3.8,2-3.7,4.2c-0.2,9.8-0.2,15.8-0.2,21.8   c-0.1,6-0.2,12.1-0.3,22.1c-0.2,8.4-3.3,15.5-9.2,21.4c-6,6-14.1,9.2-22.5,9.2h-25.3c-10.5-0.2-19.8-2.5-27.8-6.6   c-8.3-4.3-15.2-10.7-20.9-19.3c-1.2-1.8-3.8-2.3-5.6-1.1s-2.3,3.8-1.1,5.6c8.9,13.3,20.7,22.2,35.4,26.5   c-9.2,5.3-16.1,14.2-18.7,25.1l-5.7,23.9h-11.8v7.8h15.1c1.7,0,3.4-1.2,3.8-3l6.5-27c3.3-14.1,15.8-24,30.2-24h26.5   c10.5,0,19.8-3.8,27.3-11.3s11.6-16.6,11.8-27.1l0.5-40.4l29.1-1.4C454.4,276.7,462.4,262.2,455.7,251.1z"></path>
</g>
</svg>
